<?xml version="1.0" encoding="UTF-8"?>
<svg xmlns="http://www.w3.org/2000/svg" xmlns:xlink="http://www.w3.org/1999/xlink" width="61px" height="61px" viewBox="0 0 61 61" version="1.1">
<g id="surface1">
<path style=" stroke:none;fill-rule:nonzero;fill:rgb(37.647059%,38.039216%,38.039216%);fill-opacity:1;" d="M 37.648438 29.871094 C 41.433594 26.832031 42.890625 21.734375 41.28125 17.15625 C 39.671875 12.578125 35.34375 9.511719 30.492188 9.511719 C 25.636719 9.511719 21.3125 12.578125 19.699219 17.15625 C 18.089844 21.734375 19.546875 26.832031 23.332031 29.871094 C 15.050781 32.882812 9.539062 40.75 9.53125 49.5625 L 9.53125 51.46875 L 51.46875 51.46875 L 51.46875 49.5625 C 51.460938 40.746094 45.9375 32.875 37.648438 29.871094 Z M 22.875 20.96875 C 22.875 16.757812 26.289062 13.34375 30.5 13.34375 C 34.710938 13.34375 38.125 16.757812 38.125 20.96875 C 38.125 25.179688 34.710938 28.59375 30.5 28.59375 C 26.289062 28.59375 22.875 25.179688 22.875 20.96875 Z M 13.457031 47.65625 C 14.421875 38.96875 21.765625 32.394531 30.507812 32.394531 C 39.25 32.394531 46.597656 38.96875 47.5625 47.65625 Z M 13.457031 47.65625 "/>
</g>
</svg>
